<svg xmlns="http://www.w3.org/2000/svg" viewBox="0 0 139.1553 130.4873"><g id="Layer_2" data-name="Layer 2"><g id="Layer_1-2" data-name="Layer 1"><path d="M131.1594 96.1447c-1.8942-1.8338-3.8997-3.826-3.357 1.4918.9302 9.145-3.6897 15.632-9.7033 16.607-5.7967.9469-16.6391-10.2158-20.3556-30.1337 29.8389-9.0188 24.6596-30.0467 22.225-32.7548-2.0825-2.3106-3.1179-2.2592-3.5467 1.4941-1.0932 9.5325-7.703 16.0016-19.8966 20.4429-.7315-17.3037 3.837-39.3134 19.145-64.4842 4.5808-7.5279-1.513-3.1024-3.168-2.2413-33.1355 17.2411-49.3046 51.2353-61.7685 76.1774-16.5352 5.6072-20.8648 16.0966-21.278 17.8788-.5572 2.4266-.3383 2.8957 2.6097 1.4942a281.3412 281.3412 0 0 1 11.1494-5.022c-5.3815 9.3438-10.5843 15.5349-16.9306 15.8452-12.6827.6221-17.7302-10.4157-17.7302-12.3174 0-3.5444-1.6842-3.7331-3.5433 2.6144-2.534 8.592 4.0435 23.0135 22.0195 22.7644 13.6196-.1866 23.1375-16.2026 32.0489-34.6777 10.38-2.8835 17.086-2.7584 29.3196-5.0176 5.615 27.9428 20.7656 44.3877 36.7894 37.4583 11.1114-4.804 11.5716-22.2105 5.9713-27.6198zM86.87 76.1743a175.7835 175.7835 0 0 1-21.9593 3.5445c-.1374.0167-.2747.0245-.411.0423 7.0074-15.0378 14.0886-29.8723 22.9967-37.7375a141.37 141.37 0 0 0-.6264 34.1507z" fill="#ce1141"/></g></g></svg>