<svg version="1.1" xmlns="http://www.w3.org/2000/svg" xmlns:xlink="http://www.w3.org/1999/xlink" width="348.73099" height="500" viewBox="0,0,348.73099,500"><g transform="translate(-65.6345,70)"><g data-paper-data="{&quot;isPaintingLayer&quot;:true}" fill="#005A9C" fill-rule="nonzero" stroke="none" stroke-width="1" stroke-linecap="butt" stroke-linejoin="miter" stroke-miterlimit="10" stroke-dasharray="" stroke-dashoffset="0" style="mix-blend-mode: normal"><path d="M363.03579,206.39662h51.3297v102.48127h-61.7574c1.50205,6.35964 15.70895,65.70028 16.63329,69.71056h37.30574l0.0433,51.41155l-127.5636,-0.22627v-51.18528h35.95294c-1.41058,-6.32594 -14.97237,-65.60881 -15.96411,-69.71056h-87.99514c-0.88583,4.10657 -14.50057,63.38462 -15.89189,69.71056h35.92405v51.18528l-127.55397,0.22627v-51.41155h37.33463l16.66699,-69.71056h-91.86582v-48.87924h37.52239v-281.54307h-35.57743v-48.14266l122.81673,-0.31293v48.45558h-37.73902v279.12631h17.10027c1.07839,-4.41468 49.15846,-205.80023 49.15846,-205.80023h72.21399c0,0 48.16191,201.38555 49.21142,205.80019l22.69445,-0.0144v-51.17083M287.27369,257.58189c-1.44909,-6.40779 -28.50045,-124.54024 -32.25558,-140.79801c-3.67328,16.25777 -30.73908,134.39022 -32.26521,140.79801z"/></g></g></svg>