<svg viewBox="0 0 136.2 158.7" xmlns="http://www.w3.org/2000/svg"><path d="m127.9 143.6-7.1-7.7c-.6-.6-1.6-.6-2.2 0-5 5-10.8 6.5-14.6 6.5h-50.2c-3.4 0-6.4-.3-6.4-3.8v-12.7c7.6 2.1 13.9 3.4 21.1 4.1 28.2 3 54.3-5.7 54.3-30.3 0-13.1-15.1-26.8-37.3-27.2-.2 0-.4-.2-.4-.4v-9.4c0-.2.2-.4.4-.4 5.6 0 10.4 1.5 10.4 1.5 2 .8 1.7-1.6 1.7-2.4l-.1-7.4c0-.5-.6-.8-.9-.8h-35.2c-.4 0-.9.3-.9.9v7.4c0 .9-.1 2.9 1.7 2.4 0 0 3.8-1.6 10.4-1.5.2 0 .4.2.4.4v9.4c0 .2-.2.4-.4.4h-24.8c-.2 0-.4-.2-.4-.4v-35.5c0-.2.2-.4.4-.4 13.2-.2 37.2 1.6 56.2 8.2.7.2 1.4 0 1.8-.6 1.6-2.7 3.7-6.1 6.8-11.4.7-1.3-.4-2.3-2-1.9-8.3 2.2-8.6 1.4-15.9-.4-8.3-2.1-27.7-6.2-47-5.9-.2 0-.5-.2-.5-.4v-5c0-3.3 2.7-6 6-6h1.4c.8 0 1.5-.7 1.5-1.5v-6.2c0-.8-.7-1.5-1.5-1.5h-27.5c-.8 0-1.5.7-1.5 1.5v6.2c0 .8.7 1.5 1.5 1.5h1.4c3.3 0 6 2.7 6 6v5.4c0 .2-.2.4-.4.4-14.8 2.3-26.2 15.1-26.2 30.4 0 15.4 11.4 27.4 26.1 29.5.2 0 .4.2.4.4v24c-3.9-1.6-7.7-3.3-11.4-5.2-1.3-.7-2.6-1.5-3.9-2.2-.3-.2-.6-.2-.9-.2-.5 0-.9.1-1.2.5-1.3 1.5-2.9 3.2-4.9 5.5-1.2 1.3-2.4 2.7-3.9 4.3-.3.3-.4.7-.4 1-.1.8.7 1.5 1.9 1.4 2-.2 3.7-.2 5.1-.3 3.9.2 5.3 1.3 10.3 3.7 2.2 1.1 5.4 2.5 9.1 4.1v16.6c0 4.8-5.9 3.9-8.2 4.1-.5.1-.7.6-.7 1v10.2c0 .8.7 1.5 1.5 1.5h77.2c9.8 0 17.5-3.2 23.9-9.5.5-.4.6-1.3 0-1.9zm-80.5-58.7c0-.2.2-.4.4-.4h24.9c.2 0 .4.2.4.4v9.8c0 .5-.1.9-.3 1.4l-1.4 3.4c-.3.6.2 1.4.9 1.4h13.7c.7 0 1.2-.7.9-1.4l-1.5-3.3c-.2-.5-.3-1-.3-1.5v-9.7c0-.2.2-.5.4-.4 9 .1 25.1 3.6 25.1 16.2 0 16.8-29 22.7-63.3 12.9 0 0-.1 0-.1-.1v-28.7zm-13.5-12.4c-8.8-1.4-14.3-8.9-14.3-18.1 0-8.5 6.1-15.7 14.3-17.7.3-.1.6.1.6.4v34.9c-.1.3-.3.5-.6.5z" fill="#c41e3a"/></svg>